HIERARCHY
ROOT Hips
{
  OFFSET 6.12541 106.058 -7.54883
  CHANNELS 6 Xposition Yposition Zposition Zrotation Xrotation Yrotation
  JOINT ToSpine
  {
    OFFSET -2.69724 7.43032 -0.144315
    CHANNELS 3 Zrotation Xrotation Yrotation
    JOINT Spine
    {
      OFFSET -0.0310711 10.7595 1.96963
      CHANNELS 3 Zrotation Xrotation Yrotation
      JOINT Spine1
      {
        OFFSET 19.9056 3.91189 0.764692
        CHANNELS 3 Zrotation Xrotation Yrotation
        JOINT Neck
        {
          OFFSET 25.9749 7.03908 -0.130764
          CHANNELS 3 Zrotation Xrotation Yrotation
          JOINT Head
          {
            OFFSET 9.52751 0.295786 -0.907742
            CHANNELS 3 Zrotation Xrotation Yrotation
            End Site
            {
              OFFSET 16.4037 0.713936 2.7358
            }
          }
        }
        JOINT LeftShoulder
        {
          OFFSET 17.7449 4.33886 11.7777
          CHANNELS 3 Zrotation Xrotation Yrotation
          JOINT LeftArm
          {
            OFFSET 0.911315 1.27913 9.80584
            CHANNELS 3 Zrotation Xrotation Yrotation
            JOINT LeftForeArm
            {
              OFFSET 28.6126 1.18197 -3.53199
              CHANNELS 3 Zrotation Xrotation Yrotation
              JOINT LeftHand
              {
                OFFSET 27.5088 0.0218783 0.327423
                CHANNELS 3 Zrotation Xrotation Yrotation
                End Site
                {
                  OFFSET 18.6038 -0.000155887 0.382096
                }
              }
            }
          }
        }
        JOINT RightShoulder
        {
          OFFSET 17.1009 2.89543 -12.2328
          CHANNELS 3 Zrotation Xrotation Yrotation
          JOINT RightArm
          {
            OFFSET 1.4228 0.178766 -10.211
            CHANNELS 3 Zrotation Xrotation Yrotation
            JOINT RightForeArm
            {
              OFFSET 28.733 1.87905 2.64907
              CHANNELS 3 Zrotation Xrotation Yrotation
              JOINT RightHand
              {
                OFFSET 27.4588 0.290562 -0.101845
                CHANNELS 3 Zrotation Xrotation Yrotation
                End Site
                {
                  OFFSET 17.8396 -0.255518 -0.000602873
                }
              }
            }
          }
        }
      }
    }
  }
  JOINT LeftUpLeg
  {
    OFFSET -5.61296 -2.22332 -10.2353
    CHANNELS 3 Zrotation Xrotation Yrotation
    JOINT LeftLeg
    {
      OFFSET 2.56703 -44.7417 -7.93097
      CHANNELS 3 Zrotation Xrotation Yrotation
      JOINT LeftFoot
      {
        OFFSET 3.16933 -46.5642 -3.96578
        CHANNELS 3 Zrotation Xrotation Yrotation
        JOINT LeftToeBase
        {
          OFFSET 0.346054 -6.02161 12.8035
          CHANNELS 3 Zrotation Xrotation Yrotation
          End Site
          {
            OFFSET 0.134235 -1.35082 5.13018
          }
        }
      }
    }
  }
  JOINT RightUpLeg
  {
    OFFSET -5.7928 -1.72406 10.6446
    CHANNELS 3 Zrotation Xrotation Yrotation
    JOINT RightLeg
    {
      OFFSET -2.57161 -44.7178 -7.85259
      CHANNELS 3 Zrotation Xrotation Yrotation
      JOINT RightFoot
      {
        OFFSET -3.10148 -46.5936 -4.03391
        CHANNELS 3 Zrotation Xrotation Yrotation
        JOINT RightToeBase
        {
          OFFSET -0.0828122 -6.13587 12.8035
          CHANNELS 3 Zrotation Xrotation Yrotation
          End Site
          {
            OFFSET -0.131328 -1.35082 5.13018
          }
        }
      }
    }
  }
}
MOTION
Frames:	20
Frame Time:	0.0333333
-2.8979 106.563 -9.8097 12.7398 -73.533 -76.5343 -70.1915 0 88.8779 70.8964 70.6975 13.8501 4.87354 19.4235 6.3308 -150.622 22.6035 177.267 -165.302 62.0592 -173.179 2.33435 -4.11165 -34.7478 -105.942 48.9001 -89.9428 -15.2058 45.7562 10.7536 8.45064 -0.524678 -5.22176 0.338283 -1.04524 48.6906 -87.8056 -30.9978 87.8397 -10.1237 -10.7863 2.02711 13.5993 -0.194112 -2.07554 -58.3703 -0.3827 95.4531 3.32282 17.6963 -6.77305 4.34488 -2.66162 -0.72779 -0.879495 -1.73647 2.16762 -61.7635 3.91741 81.737 -1.03187 17.038 -3.74121 -4.89919 -3.15304 0.854172 -0.302851 -2.80658 -1.88732 
-2.90879 106.554 -9.79721 12.7402 -73.5743 -76.4568 -70.1915 0 88.8779 71.6174 70.6855 13.2759 4.69837 19.3914 6.18086 -150.282 22.4366 176.813 -164.117 61.8474 -173.969 2.3402 -4.03504 -34.5427 -105.581 48.9825 -89.4817 -15.2665 45.2299 10.6517 8.00451 -0.468588 -4.83482 0.311766 -0.967791 48.6647 -87.9816 -31.1672 87.7217 -10.1112 -10.3714 2.0763 13.3792 -0.239041 -2.45001 -58.355 -0.29522 95.4704 3.35779 17.7873 -6.72558 4.37771 -2.51111 -0.725807 -1.06992 -2.29939 1.8318 -61.862 4.0439 81.8086 -1.06894 16.9352 -3.8475 -4.98272 -3.18509 0.86293 -0.360355 -2.82206 -1.40971 
-2.94165 106.533 -9.76146 12.9714 -73.5912 -76.2277 -70.1915 0 88.8779 72.0482 70.6965 12.8969 4.53835 19.3961 6.05825 -149.854 22.2792 176.33 -162.862 61.6416 -174.621 2.31262 -4.07608 -34.2056 -105.538 49.2761 -89.2347 -15.3121 45.225 10.6506 8.08575 -0.460674 -4.6618 0.319405 -0.98976 48.7084 -87.1378 -31.4259 88.1097 -10.1165 -11.4698 2.16823 15.2022 -0.473317 -4.08404 -58.3608 -0.242074 95.538 3.33602 17.8886 -6.88354 4.21328 -2.59606 -0.712699 -1.04589 -2.23082 1.86377 -62.0066 4.04974 81.8046 -1.04186 16.7924 -3.7869 -5.29452 -3.21872 0.89332 -0.334536 -2.78879 -1.5779 
-2.99095 106.521 -9.7241 13.0261 -73.6789 -76.2309 -70.1915 0 88.8779 72.2132 70.7156 12.6024 4.54512 19.3687 6.10365 -150.319 22.5162 176.585 -163.272 61.8936 -174.501 2.30881 -4.11329 -34.2836 -105.529 49.196 -89.2409 -15.328 45.2937 10.6637 8.23024 -0.468159 -4.65363 0.291344 -0.907609 48.7336 -87.1654 -31.3509 88.085 -10.17 -10.6799 2.2198 15.2482 -0.444033 -3.82318 -58.3531 -0.24316 95.5927 3.32964 18.1102 -6.80712 4.08148 -2.78448 -0.706583 -0.88907 -1.85097 1.72311 -62.2575 4.10356 81.8901 -1.12319 16.5378 -3.69086 -5.59398 -3.12991 0.919363 -0.330285 -2.91522 -1.83388 
-2.99182 106.516 -9.68644 13.0917 -73.7236 -76.1158 -70.1915 0 88.8779 72.1661 70.7253 12.5932 4.62942 19.3312 6.31086 -150.21 22.6502 176.516 -162.591 61.9882 -174.931 2.30481 -4.21665 -34.6382 -105.516 48.9644 -89.3586 -15.3067 45.3206 10.6689 8.39387 -0.478107 -4.66368 0.304887 -0.948299 48.5631 -86.866 -31.4036 88.2825 -10.211 -9.94579 2.39803 15.807 -0.462638 -3.83434 -58.5269 -0.218141 95.5703 3.3679 17.9203 -6.91923 4.29514 -2.80715 -0.728037 -0.965389 -2.03999 1.7704 -62.2472 4.08534 81.7864 -1.05199 16.704 -3.71525 -5.38926 -3.25353 0.902979 -0.313865 -2.67461 -1.56582 
-3.0347 106.541 -9.63745 13.14 -73.7029 -76.1497 -70.1915 0 88.8779 71.718 70.6936 12.8472 4.71268 19.3083 6.38249 -149.784 22.4961 176.194 -161.669 61.7937 -175.271 2.29686 -4.23325 -34.5579 -105.391 49.0267 -89.4564 -15.358 45.22 10.6495 8.61632 -0.496093 -4.7338 0.311804 -0.968804 48.5356 -87.1766 -31.4078 88.1957 -10.1724 -10.3485 2.28503 15.6551 -0.440307 -3.70103 -58.494 -0.307641 95.532 3.38963 18.0036 -6.79798 4.05287 -2.78695 -0.704094 -0.872928 -1.78017 1.86547 -62.2967 4.05263 81.8023 -1.09664 16.624 -3.70397 -5.2876 -3.29582 0.894523 -0.262264 -2.61612 -1.91152 
-3.03932 106.528 -9.59842 12.9263 -73.7131 -76.3805 -70.1915 0 88.8779 71.557 70.6892 13.0578 4.79729 19.3621 6.25091 -150.208 22.7223 176.334 -162.296 62.0461 -175.318 2.27997 -4.31402 -34.5796 -105.293 48.9793 -89.6139 -15.389 45.1623 10.6384 8.86438 -0.513508 -4.77539 0.304815 -0.94781 48.6029 -87.1091 -31.3819 88.2007 -10.1305 -10.287 2.4243 15.6265 -0.454287 -3.81331 -58.5831 -0.336425 95.5036 3.38374 17.8437 -6.61333 4.29954 -2.50736 -0.71793 -1.18402 -2.60971 1.75929 -62.2097 3.99356 81.7343 -1.05188 16.8284 -3.63457 -5.29236 -3.35616 0.896515 -0.296202 -2.66272 -1.69754 
-3.06819 106.517 -9.56989 13.0717 -73.7408 -76.2299 -70.1915 0 88.8779 71.7449 70.7049 12.7028 4.70326 19.3125 6.41438 -150.003 22.7086 176.19 -161.756 62.0072 -175.516 2.28239 -4.34094 -34.7396 -105.144 48.8344 -89.7086 -15.4008 45.0589 10.6188 8.83222 -0.513613 -4.79961 0.293365 -0.914156 48.6202 -86.8037 -31.2985 88.2695 -10.1432 -10.2194 2.516 15.6833 -0.448189 -3.75439 -58.6251 -0.319656 95.4976 3.41465 17.8696 -6.68236 4.20891 -2.61135 -0.71272 -1.14992 -2.52934 1.71441 -62.2146 3.98731 81.7015 -1.03388 16.9382 -3.65982 -5.19545 -3.45844 0.890174 -0.284853 -2.56722 -1.63419 
-3.08702 106.531 -9.52364 13.0424 -73.653 -76.2573 -70.1915 0 88.8779 71.0467 70.6558 13.3723 4.85482 19.3277 6.3866 -149.659 22.6572 176.169 -161.693 61.9635 -175.115 2.28067 -4.38926 -34.9161 -105.317 48.6865 -89.6116 -15.3585 45.2149 10.6485 8.70113 -0.511937 -4.87296 0.293356 -0.914704 48.5087 -86.9858 -31.3681 88.1877 -10.1556 -10.0463 2.48664 15.7567 -0.415438 -3.49107 -58.4387 -0.296654 95.5088 3.39208 18.0808 -6.61768 4.28014 -2.67166 -0.721837 -1.06981 -2.34891 1.57304 -62.2161 4.04607 81.7785 -1.08638 16.8054 -3.72463 -5.1374 -3.45376 0.884715 -0.274261 -2.53251 -1.66668 
-3.07607 106.511 -9.48461 13.2044 -73.6345 -76.0815 -70.1915 0 88.8779 70.8288 70.5754 13.4895 4.97533 19.2984 6.25796 -150.092 22.7781 176.232 -162.6 62.1402 -174.774 2.28567 -4.29261 -34.5965 -105.112 48.8995 -89.7794 -15.4173 45.0889 10.6244 8.53987 -0.503666 -4.88739 0.303452 -0.94395 48.5985 -86.8899 -31.3504 88.3763 -10.2079 -10.0262 2.4281 15.6586 -0.405056 -3.4325 -58.5006 -0.291682 95.5055 3.38756 17.9635 -6.65802 4.34662 -2.58949 -0.725464 -1.22115 -2.76714 1.41673 -62.2293 3.99247 81.7047 -1.02121 16.8312 -3.7118 -5.26899 -3.45837 0.896955 -0.316782 -2.58397 -1.38734 
-3.09472 106.526 -9.43977 13.2833 -73.61 -75.9945 -70.1915 0 88.8779 70.5417 70.5358 13.6438 5.05438 19.3057 6.13336 -150.093 22.7129 176.07 -163.117 62.1193 -174.402 2.28188 -4.25458 -34.3658 -105.208 49.0543 -89.7535 -15.4107 45.2422 10.6536 8.36841 -0.498423 -4.9483 0.316975 -0.981985 48.8045 -86.7609 -31.2188 88.4989 -10.2372 -10.2216 2.37586 15.3535 -0.382703 -3.32512 -58.3982 -0.246391 95.5451 3.39775 18.2129 -6.8663 4.04695 -2.6881 -0.699748 -1.13654 -2.48009 1.79033 -62.3491 3.97457 81.6648 -0.954358 16.6269 -3.68771 -5.27256 -3.38631 0.895407 -0.335457 -2.66901 -1.36773 
-3.09007 106.533 -9.37675 12.8699 -73.6126 -76.3804 -70.1915 0 88.8779 70.0418 70.5474 14.0371 5.13154 19.3521 6.1539 -150.032 22.8255 176.023 -162.877 62.2163 -174.669 2.28166 -4.29163 -34.5164 -105.374 48.9391 -89.6397 -15.3728 45.4286 10.6894 8.22461 -0.487814 -4.92062 0.31132 -0.965747 48.7495 -87.0721 -31.2969 88.2635 -10.1247 -10.5024 2.45183 15.0895 -0.390066 -3.43675 -58.3613 -0.118406 95.6596 3.30814 18.2824 -6.69869 3.8697 -2.75353 -0.684833 -1.05052 -2.33786 1.36395 -62.3868 4.06286 81.7379 -1.00903 16.5514 -3.68932 -5.1421 -3.33783 0.882072 -0.34277 -2.78736 -1.50461 
-3.06596 106.502 -9.29621 12.9592 -73.5399 -76.2099 -70.1915 0 88.8779 69.1678 70.4378 14.7741 5.357 19.3218 6.14582 -149.966 22.7194 175.853 -162.83 62.1132 -174.8 2.27018 -4.35879 -34.5834 -105.48 48.8275 -89.5618 -15.3592 45.6794 10.738 7.90833 -0.485526 -5.15196 0.293956 -0.913834 48.999 -86.9863 -31.0216 88.2193 -10.0772 -10.8702 2.45485 14.5905 -0.374068 -3.41938 -58.3331 -0.0317362 95.6929 3.28094 18.3038 -6.88224 4.45727 -2.87454 -0.745901 -1.19292 -2.69102 1.43674 -62.4933 4.15808 81.7971 -1.02312 16.3267 -3.73046 -5.3732 -3.32514 0.903218 -0.352961 -2.74658 -1.34651 
-3.0625 106.534 -9.23258 12.3357 -73.6137 -76.9042 -70.1915 0 88.8779 68.5299 70.5056 15.1033 5.50886 19.4223 6.17935 -149.99 22.8625 176.017 -163.133 62.2737 -174.368 2.27974 -4.31011 -34.5585 -104.834 48.7203 -90.057 -15.5634 45.3909 10.6815 7.97922 -0.483493 -5.09371 0.310126 -0.961408 48.9033 -87.254 -31.1146 88.3023 -10.1366 -11.2534 2.19172 14.298 -0.350852 -3.282 -58.4095 -0.0185362 95.7876 3.20152 18.3465 -6.68605 4.07969 -2.81663 -0.707635 -1.13247 -2.50634 1.5966 -62.5578 4.13155 81.8183 -1.06385 16.3014 -3.61447 -5.19246 -3.27648 0.885146 -0.370181 -2.81392 -1.30948 
-2.97061 106.495 -9.21096 12.7319 -73.601 -76.4227 -70.1915 0 88.8779 68.481 70.4338 15.0943 5.6357 19.3994 5.96279 -150.085 22.8815 175.733 -162.803 62.2829 -174.882 2.2596 -4.40108 -34.5615 -104.614 48.6968 -90.2906 -15.6087 45.222 10.649 8.1241 -0.481554 -4.91127 0.315135 -0.975209 49.0069 -87.6166 -31.0077 88.1305 -10.1112 -10.7659 2.20785 13.5451 -0.23604 -2.45349 -58.286 0.00290476 95.7829 3.23812 18.5896 -6.83405 4.13865 -2.75731 -0.71108 -1.36109 -3.12383 1.43187 -62.5938 4.08048 81.7415 -0.963878 16.3363 -3.62774 -5.35313 -3.33779 0.901685 -0.359734 -2.80667 -1.38881 
-2.87155 106.491 -9.15506 12.375 -73.5634 -76.7633 -70.1915 0 88.8779 67.6557 70.3491 15.8382 5.92684 19.4337 5.80956 -150.143 22.8121 175.842 -162.865 62.2127 -174.767 2.27626 -4.30979 -34.4908 -104.819 48.8689 -90.2492 -15.5635 45.3599 10.6755 8.07369 -0.484882 -4.9993 0.305773 -0.947488 49.0864 -87.7457 -30.9122 88.0825 -10.0503 -11.0038 2.21529 13.5378 -0.214206 -2.25826 -58.2374 -0.0596874 95.7299 3.28572 18.671 -6.81096 4.33949 -2.86945 -0.73443 -1.40658 -3.20523 1.64958 -62.6115 4.05437 81.7547 -0.970515 16.2483 -3.52625 -5.36151 -3.36479 0.903074 -0.363925 -2.78322 -1.31284 
-2.77291 106.513 -9.12589 12.6658 -73.5453 -76.3751 -70.1915 0 88.8779 67.7566 70.2705 15.6203 5.91031 19.3823 5.63665 -150.129 22.8075 175.703 -162.903 62.2189 -174.78 2.2635 -4.33954 -34.3719 -105.217 48.8903 -89.9551 -15.4812 45.7118 10.7439 8.14361 -0.49901 -5.13452 0.299583 -0.92859 49.2716 -87.0062 -30.9031 88.4056 -10.0996 -10.3512 2.49946 13.7274 -0.266728 -2.6821 -58.1715 -0.0309163 95.7398 3.29191 18.8006 -6.78138 4.09903 -2.87668 -0.711664 -1.36466 -3.13113 1.4459 -62.6029 4.07703 81.7296 -0.959681 16.2819 -3.80556 -5.02705 -3.3048 0.870453 -0.398976 -2.88692 -1.17985 
-2.6334 106.473 -9.07912 12.0261 -73.5609 -77.0072 -70.1915 0 88.8779 67.0162 70.3376 16.1685 6.05459 19.5022 5.64884 -149.682 22.7568 175.579 -162.584 62.1723 -174.344 2.26217 -4.40553 -34.6304 -104.783 48.6558 -90.3208 -15.574 45.331 10.6699 8.39347 -0.501617 -4.97141 0.299904 -0.932757 48.6972 -86.9316 -31.6138 88.3669 -10.0227 -9.89693 2.90154 14.1019 -0.324272 -3.10677 -58.149 -0.113524 95.6876 3.37299 18.9062 -6.6178 4.29648 -2.94934 -0.733089 -1.46929 -3.4075 1.39865 -62.5895 4.03797 81.7805 -0.980682 16.3185 -3.60318 -5.24171 -3.42323 0.893526 -0.347509 -2.6913 -1.30085 
-2.49708 106.465 -9.02073 11.6156 -73.5167 -77.5201 -70.1915 0 88.8779 66.2315 70.2834 16.6155 6.17884 19.5341 5.52237 -150.093 22.8425 175.894 -163.283 62.2752 -174.198 2.29162 -4.26777 -34.6041 -104.662 48.5811 -90.353 -15.583 45.2377 10.6521 8.49852 -0.502341 -4.9008 0.28953 -0.901094 48.9778 -87.0212 -31.3182 88.2995 -10.0167 -10.1542 2.81424 13.7976 -0.248195 -2.51489 -58.0034 -0.198607 95.7613 3.25089 19.1635 -6.48144 4.22224 -2.98242 -0.727251 -1.47625 -3.40241 1.5435 -62.6005 3.90012 81.8355 -1.03508 16.237 -3.39369 -5.45054 -3.47164 0.91399 -0.332475 -2.68581 -1.42218 
-2.31386 106.448 -9.0029 11.4711 -73.6455 -77.6215 -70.1915 0 88.8779 66.4109 70.3532 16.2965 6.26352 19.5725 5.46038 -150.016 22.7518 175.992 -163.199 62.1797 -173.99 2.29122 -4.31741 -34.808 -104.883 48.4731 -90.1858 -15.5182 45.3805 10.6796 8.18705 -0.4849 -4.91007 0.296785 -0.923058 48.823 -87.2009 -31.4526 88.3271 -9.9841 -10.7029 2.67666 14.0199 -0.260525 -2.58287 -58.0546 -0.185915 95.8442 3.2211 19.3579 -6.50067 4.13503 -3.03844 -0.720718 -1.51679 -3.526 1.41961 -62.7949 3.8582 81.833 -1.04396 16.1178 -3.33991 -5.65312 -3.40692 0.93109 -0.360132 -2.80228 -1.37825 
